<mxfile host="app.diagrams.net" modified="2023-06-01T15:41:22.170Z" agent="Mozilla/5.0 (Windows NT 10.0; Win64; x64; rv:109.0) Gecko/20100101 Firefox/113.0" version="21.3.5" etag="ir5nNnNTu48erYZREOm2" type="github">
  <diagram name="Page-1" id="vAB7z1TZZKorX0BBh9Wo">
    <mxGraphModel>
      <root>
        <mxCell id="0" />
        <mxCell id="1" parent="0" />
      </root>
    </mxGraphModel>
  </diagram>
</mxfile>
